<svg width="72" height="104" viewBox="0 0 72 104" fill="none" xmlns="http://www.w3.org/2000/svg">
<path opacity="0.5" d="M72 104H0.287425V88.9171L26.012 62.9171C31.1856 57.5543 35.3533 53.1013 38.515 49.558C41.6766 45.919 43.976 42.663 45.4132 39.7901C46.8503 36.8214 47.5689 33.6611 47.5689 30.3094C47.5689 26.1915 46.4192 23.1271 44.1198 21.116C41.9162 19.105 38.8982 18.0994 35.0659 18.0994C31.1377 18.0994 27.3054 19.0092 23.5689 20.8287C19.8323 22.6482 15.9042 25.2339 11.7844 28.5856L0 14.6519C2.97006 12.0663 6.08383 9.67219 9.34132 7.46961C12.6946 5.26703 16.5269 3.49539 20.8383 2.15469C25.2455 0.718231 30.515 0 36.6467 0C43.3533 0 49.1018 1.24494 53.8922 3.73481C58.7784 6.12891 62.515 9.43278 65.1018 13.6464C67.7844 17.7643 69.1257 22.4567 69.1257 27.7238C69.1257 32.0331 68.4551 36.0074 67.1138 39.6464C65.8683 43.2854 64 46.8287 61.509 50.2762C59.1138 53.628 56.1437 57.1234 52.5988 60.7624C49.0539 64.3057 45.0299 68.1842 40.5269 72.3978L27.3054 84.7514V85.7569H72V104Z" fill="#FFC806"/>
</svg>
