<svg width="68" height="105" viewBox="0 0 68 105" fill="none" xmlns="http://www.w3.org/2000/svg">
<path opacity="0.5" d="M64.817 25.079C64.817 29.6131 64.7362 34.6939 63 38C61.2638 41.3061 58.7794 43.9219 55.5 46C52.317 48.0781 51.3404 48.6499 47 49.5C55.295 50.4446 58.9489 52.3438 63 56.5C67.0511 60.6562 68 67.1135 68 73.8202C68 79.6767 66.6014 84.9192 63.8042 89.5477C61.0071 94.0817 56.6667 97.624 50.783 100.174C44.9957 102.725 37.6631 104.5 28.5 104.5C23.0986 104.5 18.1298 103.85 13.5 103C8.87021 102.244 4.24397 100.552 0 98.4741V81C4.34043 83.0781 9.9844 84.772 15 86C20.0156 87.1335 25.3702 88.5 30 88.5C37 88.5 40.4559 88.5 44.5 85C48 81.9709 48.5 79 49 73.8202C49 69.5695 48.8149 67.5504 46.5 65C44 63 41.3404 61.728 37 60.5C32.5 60 32.0766 59.5 26 59.5H15.7702V42.5H26C31.6908 42.5 34.5974 42.5 37 41.5C40.8582 39.8942 42.5 39 44.5 37C48 33.5 49 31.5 49 28.5C49 23.5881 47.3486 20 45.5 18.5C42.1241 15.7607 39.2872 14.5 33.5 14.5C29.8348 14.5 28.9901 14.7443 26 15.5C23.0099 16.1612 19.966 16.8029 16.5 18.5C13.9922 19.728 10.1043 22.2997 7.5 24L0.578723 10.485C3.08652 8.59582 5.93191 6.84832 9.11489 5.24251C12.3943 3.63669 16.0113 2.36149 19.966 1.41689C23.9206 0.472297 28.2128 0 32.8426 0C43.6454 0 51.6511 2.36149 56.8596 7.08447C62.1645 11.8074 64.817 17.8056 64.817 25.079Z" fill="#FFC806"/>
</svg>
