<svg width="26" height="18" viewBox="0 0 26 18" fill="none" xmlns="http://www.w3.org/2000/svg">
<g id="KG - Kyrgyzstan">
<g clipPath="url(#clip0_17528_1899)">
<rect width="26" height="18" rx="3" fill="white"/>
<g id="flag">
<g id="contents">
<path id="background" fillRule="evenodd" clipRule="evenodd" d="M-3 -3V21H29V-3H-3Z" fill="#C51918"/>
<mask id="mask0_17528_1899" style="mask-type:luminance" maskUnits="userSpaceOnUse" x="-3" y="-3" width="32" height="24">
<path id="background_2" fillRule="evenodd" clipRule="evenodd" d="M-3 -3V21H29V-3H-3Z" fill="white"/>
</mask>
<g mask="url(#mask0_17528_1899)">
<g id="mark">
<path id="sun" fillRule="evenodd" clipRule="evenodd" d="M12.982 14.8668C13.0893 14.8668 13.1959 14.864 13.3018 14.8585L13.9189 16.8262L14.0618 14.7704C14.2682 14.7331 14.471 14.6852 14.6694 14.6275L15.7274 16.4011L15.3884 14.3672C15.5795 14.2838 15.7654 14.1908 15.9454 14.0888L17.3884 15.5737L16.5848 13.6704C16.7507 13.5461 16.9098 13.4134 17.0616 13.273L18.8122 14.3887L17.5875 12.7202C17.72 12.5619 17.8443 12.3966 17.9599 12.225L19.9221 12.9099L18.3437 11.5676C18.4358 11.3835 18.5185 11.194 18.5913 10.9997L20.6583 11.2172L18.8111 10.2724C18.8575 10.0729 18.8937 9.86948 18.9193 9.6628L20.981 9.40163L18.964 8.90487C18.963 8.69599 18.9511 8.48967 18.9289 8.28642L20.8729 7.56121L18.798 7.53925C18.7487 7.33649 18.689 7.13779 18.6194 6.94374L20.3399 5.79511L18.3177 6.24793C18.2226 6.0624 18.1179 5.88249 18.0044 5.70884L19.4105 4.19855L17.5492 5.10123C17.4137 4.94259 17.27 4.79109 17.1188 4.6474L18.1351 2.8576L16.5358 4.16005C16.3672 4.03636 16.1918 3.92125 16.0103 3.81537L16.5822 1.84455L15.331 3.47492C15.1382 3.39319 14.9402 3.32121 14.7376 3.25961L14.8356 1.21402L13.9979 3.0852C13.7919 3.05025 13.5822 3.02574 13.3696 3.01225L12.9895 1L12.6096 3.01131C12.3966 3.02429 12.1866 3.04833 11.9801 3.08285L11.1434 1.21402L11.2413 3.25513C11.0375 3.31651 10.8383 3.38839 10.6444 3.47013L9.39688 1.84455L9.96654 3.8079C9.78331 3.91418 9.60629 4.02986 9.43615 4.15426L7.844 2.8576L8.85504 4.63815C8.70182 4.78304 8.55633 4.9359 8.41927 5.09608L6.56851 4.19855L7.96586 5.69937C7.85053 5.87501 7.74431 6.05708 7.64789 6.24492L5.63919 5.79511L7.34754 6.93566C7.27665 7.13232 7.21594 7.33378 7.16602 7.53941L5.10612 7.56121L7.03574 8.28104C7.01301 8.48723 7.00093 8.69659 7.00005 8.90858L4.99805 9.40163L7.04451 9.66087C7.07036 9.87058 7.10724 10.0769 7.15456 10.2793L5.3208 11.2172L7.37329 11.0012C7.44712 11.1981 7.53118 11.3901 7.62484 11.5765L6.05697 12.9099L8.007 12.2292C8.12408 12.4028 8.25014 12.5698 8.38453 12.7298L7.16688 14.3887L8.90861 13.2787C9.062 13.4202 9.2229 13.5539 9.39065 13.679L8.59069 15.5737L10.0283 14.0942C10.2097 14.1966 10.3971 14.2898 10.5897 14.3733L10.2516 16.4011L11.3074 14.6312C11.5067 14.6887 11.7102 14.7362 11.9175 14.7731L12.0602 16.8262L12.677 14.8592C12.7781 14.8643 12.8797 14.8668 12.982 14.8668ZM17.4822 8.91614C17.4822 11.401 15.4513 13.4153 12.9462 13.4153C10.441 13.4153 8.41016 11.401 8.41016 8.91614C8.41016 6.43133 10.441 4.41699 12.9462 4.41699C15.4513 4.41699 17.4822 6.43133 17.4822 8.91614ZM16.1106 10.3818C16.3 9.95615 16.4053 9.48477 16.4053 8.9888C16.4053 8.50462 16.305 8.04387 16.124 7.62622C15.3412 7.68179 14.6775 7.88778 14.1392 8.1514C15.3339 8.67414 15.8743 9.53461 16.1106 10.3818ZM15.725 11.0394C15.6272 11.1702 15.5203 11.2939 15.4052 11.4094C15.3414 10.2286 14.8364 9.32835 13.9306 8.3571C15.0521 8.89444 15.6847 10.1789 15.725 11.0394ZM14.8667 11.8503C14.8033 11.8922 14.7384 11.9322 14.6721 11.97C14.403 10.6433 13.8934 9.59663 13.184 8.76011L13.3556 8.6307C13.3786 8.6134 13.4019 8.59611 13.4257 8.57887C14.3336 9.62299 14.9063 10.5188 14.8667 11.8503ZM12.9761 12.418C13.3784 12.418 13.7644 12.3488 14.123 12.2215C13.8624 10.9593 13.4084 9.78356 12.7513 8.93516C11.9659 9.87007 11.5663 10.9265 11.5515 12.109C11.9854 12.3075 12.4678 12.418 12.9761 12.418ZM12.3154 8.52929C12.3428 8.55067 12.3689 8.57196 12.3937 8.59311C11.5574 9.54441 11.0999 10.6171 11.0219 11.8071C10.9191 11.7357 10.8204 11.6588 10.7262 11.5769C11.0415 10.3188 11.564 9.28085 12.3154 8.52929ZM9.81828 7.64947C10.6041 7.73799 11.2245 7.92909 11.6894 8.15028C10.5047 8.65362 10.0379 9.46449 9.80302 10.2916C9.63792 9.88994 9.54688 9.45 9.54688 8.9888C9.54688 8.51358 9.64354 8.06094 9.81828 7.64947ZM10.2485 11.0675C10.222 11.0328 10.1962 10.9976 10.171 10.9619C10.2307 10.093 10.7841 8.86087 11.9015 8.35273C11.1518 9.08031 10.5909 9.90851 10.2485 11.0675ZM10.5022 6.61407C11.1262 5.96413 12.0039 5.55957 12.9761 5.55957C13.9331 5.55957 14.7985 5.95157 15.4206 6.58376C14.4414 6.69724 13.6111 6.94268 12.9369 7.32456C12.3361 6.97981 11.5238 6.74678 10.5022 6.61407Z" fill="#FFDC17"/>
</g>
</g>
</g>
</g>
</g>
</g>
<defs>
<clipPath id="clip0_17528_1899">
<rect width="26" height="18" rx="3" fill="white"/>
</clipPath>
</defs>
</svg>
