<svg width="24" height="24" viewBox="0 0 24 24" fill="none" xmlns="http://www.w3.org/2000/svg">
<g id="Phone call">
<path id="Vector" d="M7.25002 16.7502C9.91086 19.4175 13.3623 21.1537 17.09 21.7002C17.8169 21.8027 18.5567 21.6438 19.1775 21.2519C19.7983 20.86 20.2598 20.2605 20.48 19.5602L21.76 15.5602L17.59 13.0002L14.36 16.2302C12.8572 15.6575 11.4919 14.7747 10.353 13.6393C9.21415 12.5039 8.32722 11.1412 7.75002 9.64023L11 6.41023L8.46002 2.24023L4.46002 3.52023C3.75595 3.73656 3.15191 4.19652 2.75612 4.8177C2.36032 5.43887 2.19864 6.18068 2.30002 6.91023C2.84647 10.6379 4.5827 14.0894 7.25002 16.7502Z" fill="#F3F0E7"/>
</g>
</svg>
