<svg width="54" height="30" viewBox="0 0 54 30" fill="none" xmlns="http://www.w3.org/2000/svg">
<line y1="29.5" x2="25" y2="29.5" stroke="#FFC806"/>
<path d="M5.292 6.148C6.36 6.148 7.236 6.286 7.92 6.562C8.616 6.826 9.132 7.228 9.468 7.768C9.804 8.308 9.972 8.986 9.972 9.802C9.972 10.486 9.846 11.056 9.594 11.512C9.342 11.968 9.018 12.334 8.622 12.61C8.238 12.874 7.83 13.084 7.398 13.24L10.926 19H9.036L5.922 13.69H3.366V19H1.746V6.148H5.292ZM5.202 7.552H3.366V12.322H5.292C5.988 12.322 6.558 12.232 7.002 12.052C7.446 11.86 7.77 11.584 7.974 11.224C8.19 10.864 8.298 10.414 8.298 9.874C8.298 9.31 8.184 8.86 7.956 8.524C7.74 8.188 7.404 7.942 6.948 7.786C6.492 7.63 5.91 7.552 5.202 7.552ZM22.7173 14.464C22.7173 15.352 22.5373 16.156 22.1773 16.876C21.8173 17.584 21.2653 18.148 20.5213 18.568C19.7893 18.976 18.8533 19.18 17.7133 19.18C16.1173 19.18 14.8993 18.748 14.0593 17.884C13.2313 17.008 12.8173 15.856 12.8173 14.428V6.148H14.4373V14.482C14.4373 15.526 14.7133 16.336 15.2653 16.912C15.8293 17.488 16.6753 17.776 17.8033 17.776C18.5833 17.776 19.2133 17.638 19.6933 17.362C20.1853 17.074 20.5453 16.684 20.7733 16.192C21.0013 15.688 21.1153 15.112 21.1153 14.464V6.148H22.7173V14.464Z" fill="#000"/>
<path d="M41.142 19H39.234L34.68 12.862L33.366 14.014V19H31.746V6.148H33.366V12.484C33.726 12.076 34.092 11.668 34.464 11.26C34.836 10.852 35.208 10.444 35.58 10.036L39.054 6.148H40.944L35.85 11.746L41.142 19ZM48.119 12.214H52.565V18.514C51.869 18.742 51.167 18.91 50.459 19.018C49.751 19.126 48.947 19.18 48.047 19.18C46.715 19.18 45.593 18.916 44.681 18.388C43.769 17.848 43.073 17.086 42.593 16.102C42.125 15.106 41.891 13.93 41.891 12.574C41.891 11.23 42.155 10.066 42.683 9.082C43.211 8.098 43.967 7.336 44.951 6.796C45.947 6.244 47.147 5.968 48.551 5.968C49.271 5.968 49.949 6.034 50.585 6.166C51.233 6.298 51.833 6.484 52.385 6.724L51.773 8.128C51.317 7.924 50.801 7.75 50.225 7.606C49.661 7.462 49.073 7.39 48.461 7.39C47.441 7.39 46.565 7.6 45.833 8.02C45.101 8.44 44.543 9.04 44.159 9.82C43.775 10.588 43.583 11.506 43.583 12.574C43.583 13.594 43.745 14.5 44.069 15.292C44.405 16.072 44.927 16.684 45.635 17.128C46.343 17.56 47.273 17.776 48.425 17.776C48.809 17.776 49.145 17.764 49.433 17.74C49.733 17.704 50.003 17.662 50.243 17.614C50.495 17.566 50.729 17.518 50.945 17.47V13.654H48.119V12.214Z" fill="#737373"/>
</svg>
