<svg width="129" height="44" viewBox="0 0 129 44" fill="none" xmlns="http://www.w3.org/2000/svg">
<g id="&#208;&#155;&#208;&#190;&#208;&#179;&#208;&#190;&#209;&#130;&#208;&#184;&#208;&#191; &#208;&#175;&#208;&#189;&#208;&#180;&#208;&#181;&#208;&#186;&#209;&#129;">
<g id="Group">
<path id="Vector" d="M0 20.016C0 12.5792 0 8.86075 1.7449 6.08367C2.92347 4.20793 4.63531 2.65393 6.70156 1.58402C9.76068 0 13.8568 0 22.0489 0H106.95C115.142 0 119.238 0 122.297 1.58402C124.363 2.65393 126.076 4.20793 127.254 6.08367C128.999 8.86075 128.999 12.5792 128.999 20.016V23.984C128.999 31.4208 128.999 35.1393 127.254 37.9163C126.076 39.792 124.363 41.346 122.297 42.416C119.238 44 115.142 44 106.95 44H22.0489C13.8568 44 9.76068 44 6.70156 42.416C4.63531 41.346 2.92347 39.792 1.7449 37.9163C0 35.1393 0 31.4208 0 23.984V20.016Z" fill="white"/>
</g>
<path id="Vector_2" d="M39.5467 12.7062C39.5467 12.2491 39.6212 11.8522 39.7703 11.5154C39.9193 11.1707 40.128 10.89 40.3962 10.6735C40.6645 10.449 40.9849 10.2806 41.3575 10.1684C41.7376 10.0561 42.1586 10 42.6206 10H45.225V18.6236H43.8613V15.3041H42.6206L40.5751 18.6236H38.999L41.2569 15.0876C40.6757 14.9352 40.2435 14.6586 39.9603 14.2577C39.6846 13.8488 39.5467 13.3316 39.5467 12.7062ZM43.8613 14.0893V11.2629H42.6094C42.1027 11.2629 41.6966 11.3711 41.3911 11.5876C41.093 11.7961 40.9439 12.1569 40.9439 12.6701C40.9439 13.1752 41.0781 13.5401 41.3464 13.7646C41.6146 13.9811 41.9947 14.0893 42.4865 14.0893H43.8613ZM50.5485 15.9896H48.1006V18.6236H46.8039V12.3814H48.1006V14.8591H50.5485V12.3814H51.8451V18.6236H50.5485V15.9896ZM53.1423 17.4931C53.3137 17.3327 53.4478 17.1122 53.5447 16.8315C53.649 16.5509 53.731 16.2021 53.7906 15.7852C53.8502 15.3602 53.8949 14.8671 53.9247 14.3058C53.9545 13.7445 53.9806 13.1031 54.003 12.3814H58.2505V17.4931H59.1224V20.4037H57.9934L57.8928 18.6236H53.8912L53.7906 20.4037H52.6505V17.4931H53.1423ZM56.9539 17.4931V13.512H55.1207C55.0835 14.4982 55.0201 15.3161 54.9307 15.9656C54.8488 16.607 54.7109 17.1162 54.5171 17.4931H56.9539ZM64.8195 18.1666C64.7375 18.2227 64.6369 18.2869 64.5177 18.359C64.3984 18.4232 64.2569 18.4833 64.0929 18.5394C63.929 18.5956 63.739 18.6437 63.5229 18.6838C63.3068 18.7239 63.0608 18.7439 62.7851 18.7439C61.7195 18.7439 60.9222 18.4592 60.3931 17.89C59.8715 17.3207 59.6106 16.5228 59.6106 15.4965C59.6106 14.9914 59.6814 14.5383 59.823 14.1374C59.9646 13.7365 60.1621 13.3997 60.4154 13.1271C60.6688 12.8465 60.9706 12.634 61.3208 12.4897C61.6711 12.3373 62.0548 12.2611 62.4721 12.2611C62.9044 12.2611 63.2918 12.3373 63.6346 12.4897C63.9849 12.642 64.2718 12.8705 64.4953 13.1752C64.7189 13.4799 64.8716 13.8568 64.9536 14.3058C65.043 14.7548 65.0468 15.28 64.9648 15.8814H60.952C61.0041 16.4507 61.1793 16.8797 61.4773 17.1683C61.7754 17.4489 62.2411 17.5893 62.8745 17.5893C63.3366 17.5893 63.7203 17.5291 64.0259 17.4089C64.3388 17.2806 64.6034 17.1483 64.8195 17.012V18.1666ZM62.4721 13.3677C62.0921 13.3677 61.7717 13.4919 61.5109 13.7405C61.25 13.9891 61.0787 14.3579 60.9967 14.847H63.7241C63.739 14.3419 63.6346 13.969 63.4111 13.7285C63.1875 13.4879 62.8745 13.3677 62.4721 13.3677ZM67.9681 16.0858H67.4651V18.6236H66.1685V12.3814H67.4651V14.9553H68.0128L69.8574 12.3814H71.2206L69.0296 15.3883L71.3105 18.6236H69.7788L67.9681 16.0858ZM74.5707 18.7439C74.1009 18.7439 73.6805 18.6717 73.3079 18.5274C72.9353 18.3751 72.6186 18.1626 72.3578 17.89C72.097 17.6093 71.8953 17.2685 71.7536 16.8676C71.6126 16.4667 71.5414 16.0097 71.5414 15.4965C71.5414 14.9914 71.6126 14.5383 71.7536 14.1374C71.8953 13.7365 72.097 13.3997 72.3578 13.1271C72.6186 12.8465 72.9386 12.634 73.3185 12.4897C73.6992 12.3373 74.1236 12.2611 74.5934 12.2611C74.9951 12.2611 75.3458 12.3093 75.6439 12.4055C75.9493 12.5017 76.1915 12.622 76.3705 12.7663V13.9209C76.1396 13.7606 75.8861 13.6363 75.6099 13.5481C75.3418 13.4599 75.0291 13.4158 74.6711 13.4158C73.4715 13.4158 72.8713 14.1093 72.8713 15.4965C72.8713 16.8837 73.4602 17.5772 74.6379 17.5772C75.0178 17.5772 75.3418 17.5331 75.6099 17.4449C75.8861 17.3487 76.1396 17.2284 76.3705 17.0841V18.2387C76.1769 18.3751 75.9347 18.4953 75.6439 18.5996C75.3531 18.6958 74.9951 18.7439 74.5707 18.7439ZM80.1547 10H86.4256V18.6236H85.0616V11.2629H81.5074V18.6236H80.1547V10ZM91.1972 18.7439C90.7574 18.7439 90.3775 18.6397 90.0567 18.4312C89.7441 18.2147 89.4906 17.926 89.297 17.5652V20.7525H88.0002V12.3814H89.1852L89.2743 13.4879C89.4679 13.1111 89.7255 12.8144 90.0454 12.5979C90.3662 12.3734 90.7574 12.2611 91.2191 12.2611C91.5617 12.2611 91.8865 12.3293 92.1919 12.4656C92.5045 12.5939 92.7767 12.7944 93.0075 13.067C93.2383 13.3316 93.4214 13.6683 93.5551 14.0773C93.6968 14.4782 93.7681 14.9513 93.7681 15.4965C93.7681 16.0498 93.6968 16.5309 93.5551 16.9398C93.4214 17.3407 93.2351 17.6775 92.9962 17.9501C92.7653 18.2147 92.4932 18.4151 92.1805 18.5515C91.8679 18.6797 91.5398 18.7439 91.1972 18.7439ZM90.8837 17.5772C91.3462 17.5772 91.7188 17.4089 92.0015 17.0721C92.2923 16.7273 92.4373 16.2021 92.4373 15.4965C92.4373 14.7989 92.2923 14.2777 92.0015 13.9329C91.7188 13.5882 91.3495 13.4158 90.8951 13.4158C90.6642 13.4158 90.452 13.4599 90.2576 13.5481C90.064 13.6283 89.8931 13.7565 89.7441 13.9329C89.6023 14.1093 89.4906 14.3299 89.4088 14.5945C89.3261 14.851 89.2856 15.1517 89.2856 15.4965C89.2856 15.8493 89.3261 16.158 89.4088 16.4226C89.4906 16.6792 89.6023 16.8957 89.7441 17.0721C89.885 17.2405 90.0527 17.3688 90.2471 17.457C90.448 17.5372 90.6602 17.5772 90.8837 17.5772ZM97.3814 18.7439C96.9716 18.7439 96.5909 18.6717 96.241 18.5274C95.891 18.3831 95.5849 18.1746 95.3241 17.902C95.0713 17.6213 94.8697 17.2806 94.7206 16.8797C94.5789 16.4787 94.5084 16.0177 94.5084 15.4965C94.5084 14.9753 94.5789 14.5143 94.7206 14.1134C94.8697 13.7124 95.0713 13.3757 95.3241 13.1031C95.5849 12.8224 95.891 12.6139 96.241 12.4776C96.5909 12.3333 96.9716 12.2611 97.3814 12.2611C97.7913 12.2611 98.1711 12.3333 98.5211 12.4776C98.8718 12.6139 99.1771 12.8224 99.438 13.1031C99.6988 13.3757 99.9037 13.7124 100.053 14.1134C100.202 14.5143 100.276 14.9753 100.276 15.4965C100.276 16.0177 100.202 16.4787 100.053 16.8797C99.9037 17.2806 99.6988 17.6213 99.438 17.902C99.1771 18.1746 98.8718 18.3831 98.5211 18.5274C98.1711 18.6717 97.7913 18.7439 97.3814 18.7439ZM97.3814 17.5772C97.8285 17.5772 98.1971 17.4089 98.4878 17.0721C98.7859 16.7353 98.935 16.2101 98.935 15.4965C98.935 14.7909 98.7859 14.2697 98.4878 13.9329C98.1971 13.5882 97.8285 13.4158 97.3814 13.4158C96.9416 13.4158 96.5722 13.5882 96.2742 13.9329C95.9842 14.2697 95.8384 14.7909 95.8384 15.4965C95.8384 16.2101 95.9842 16.7353 96.2742 17.0721C96.5722 17.4089 96.9416 17.5772 97.3814 17.5772ZM105.105 15.9896H102.658V18.6236H101.361V12.3814H102.658V14.8591H105.105V12.3814H106.402V18.6236H105.105V15.9896ZM110.986 18.5515C110.859 18.9283 110.721 19.2611 110.572 19.5497C110.43 19.8384 110.263 20.0789 110.069 20.2714C109.883 20.4718 109.663 20.6202 109.41 20.7164C109.163 20.8206 108.873 20.8727 108.537 20.8727C108.173 20.8727 107.859 20.8086 107.599 20.6803V19.4295C107.703 19.5177 107.833 19.5858 107.99 19.6339C108.146 19.682 108.318 19.7061 108.504 19.7061C108.758 19.7061 108.966 19.6459 109.13 19.5257C109.294 19.4134 109.443 19.241 109.577 19.0085L107.241 12.3814H108.639L110.259 17.2284L111.869 12.3814H113.076L110.986 18.5515ZM117.702 15.9896H115.254V18.6236H113.958V12.3814H115.254V14.8591H117.702V12.3814H118.999V18.6236H117.702V15.9896ZM41.9835 31.9914C41.5736 31.9914 41.1936 31.9193 40.8433 31.7749C40.4931 31.6306 40.1876 31.4221 39.9268 31.1495C39.6734 30.8689 39.4722 30.5281 39.3232 30.1272C39.1816 29.7263 39.1108 29.2652 39.1108 28.744C39.1108 28.2229 39.1816 27.7618 39.3232 27.3609C39.4722 26.96 39.6734 26.6232 39.9268 26.3506C40.1876 26.07 40.4931 25.8615 40.8433 25.7252C41.1936 25.5808 41.5736 25.5087 41.9835 25.5087C42.3933 25.5087 42.7734 25.5808 43.1236 25.7252C43.4739 25.8615 43.7794 26.07 44.0402 26.3506C44.301 26.6232 44.5059 26.96 44.655 27.3609C44.804 27.7618 44.8785 28.2229 44.8785 28.744C44.8785 29.2652 44.804 29.7263 44.655 30.1272C44.5059 30.5281 44.301 30.8689 44.0402 31.1495C43.7794 31.4221 43.4739 31.6306 43.1236 31.7749C42.7734 31.9193 42.3933 31.9914 41.9835 31.9914ZM41.9835 26.6513C41.5811 26.6513 41.2383 26.7716 40.9551 27.0121C40.6794 27.2526 40.5006 27.6295 40.4186 28.1427H43.5595C43.4776 27.6375 43.295 27.2647 43.0118 27.0241C42.7287 26.7756 42.3859 26.6513 41.9835 26.6513ZM41.9835 30.8488C42.4008 30.8488 42.751 30.7165 43.0342 30.4519C43.3248 30.1873 43.5037 29.7784 43.5707 29.2251H40.4074C40.4745 29.7784 40.6496 30.1873 40.9328 30.4519C41.2159 30.7165 41.5662 30.8488 41.9835 30.8488ZM49.708 29.2372H47.26V31.8712H45.9634V25.629H47.26V28.1066H49.708V25.629H51.0046V31.8712H49.708V29.2372ZM54.9732 31.9914C54.5634 31.9914 54.1834 31.9193 53.8331 31.7749C53.4829 31.6306 53.1774 31.4221 52.9165 31.1495C52.6632 30.8689 52.462 30.5281 52.3129 30.1272C52.1714 29.7263 52.1006 29.2652 52.1006 28.744C52.1006 28.2229 52.1714 27.7618 52.3129 27.3609C52.462 26.96 52.6632 26.6232 52.9165 26.3506C53.1774 26.07 53.4829 25.8615 53.8331 25.7252C54.1834 25.5808 54.5634 25.5087 54.9732 25.5087C55.3831 25.5087 55.7631 25.5808 56.1134 25.7252C56.4636 25.8615 56.7691 26.07 57.03 26.3506C57.2908 26.6232 57.4957 26.96 57.6447 27.3609C57.7938 27.7618 57.8683 28.2229 57.8683 28.744C57.8683 29.2652 57.7938 29.7263 57.6447 30.1272C57.4957 30.5281 57.2908 30.8689 57.03 31.1495C56.7691 31.4221 56.4636 31.6306 56.1134 31.7749C55.7631 31.9193 55.3831 31.9914 54.9732 31.9914ZM54.9732 26.6513C54.5709 26.6513 54.2281 26.7716 53.9449 27.0121C53.6692 27.2526 53.4903 27.6295 53.4084 28.1427H56.5493C56.4673 27.6375 56.2848 27.2647 56.0016 27.0241C55.7184 26.7756 55.3756 26.6513 54.9732 26.6513ZM54.9732 30.8488C55.3906 30.8488 55.7408 30.7165 56.024 30.4519C56.3146 30.1873 56.4934 29.7784 56.5605 29.2251H53.3972C53.4643 29.7784 53.6394 30.1873 53.9225 30.4519C54.2057 30.7165 54.5559 30.8488 54.9732 30.8488ZM60.7528 29.3334H60.2498V31.8712H58.9532V25.629H60.2498V28.2028H60.7975L62.6418 25.629H64.0055L61.8147 28.6358L64.0949 31.8712H62.5636L60.7528 29.3334ZM67.5501 26.7595V31.8712H66.2535V26.7595H64.4986V25.629H69.3382V26.7595H67.5501ZM72.7004 31.9914C72.2906 31.9914 71.9107 31.9193 71.56 31.7749C71.2101 31.6306 70.9047 31.4221 70.6439 31.1495C70.3904 30.8689 70.1895 30.5281 70.0405 30.1272C69.8987 29.7263 69.8274 29.2652 69.8274 28.744C69.8274 28.2229 69.8987 27.7618 70.0405 27.3609C70.1895 26.96 70.3904 26.6232 70.6439 26.3506C70.9047 26.07 71.2101 25.8615 71.56 25.7252C71.9107 25.5808 72.2906 25.5087 72.7004 25.5087C73.1103 25.5087 73.4902 25.5808 73.8409 25.7252C74.1908 25.8615 74.4962 26.07 74.757 26.3506C75.0178 26.6232 75.2227 26.96 75.3718 27.3609C75.5208 27.7618 75.5953 28.2229 75.5953 28.744C75.5953 29.2652 75.5208 29.7263 75.3718 30.1272C75.2227 30.5281 75.0178 30.8689 74.757 31.1495C74.4962 31.4221 74.1908 31.6306 73.8409 31.7749C73.4902 31.9193 73.1103 31.9914 72.7004 31.9914ZM72.7004 26.6513C72.2979 26.6513 71.9553 26.7716 71.6718 27.0121C71.3964 27.2526 71.2174 27.6295 71.1356 28.1427H74.2767C74.1949 27.6375 74.0118 27.2647 73.7291 27.0241C73.4456 26.7756 73.103 26.6513 72.7004 26.6513ZM72.7004 30.8488C73.1176 30.8488 73.4683 30.7165 73.751 30.4519C74.0418 30.1873 74.2208 29.7784 74.288 29.2251H71.1242C71.1914 29.7784 71.3664 30.1873 71.6499 30.4519C71.9326 30.7165 72.2833 30.8488 72.7004 30.8488ZM84.1698 31.8712H76.6807V25.629H77.9767V30.7406H79.7764V25.629H81.0732V30.7406H82.8617V25.629H84.1698V31.8712ZM88.4376 31.8952V34H87.1408V31.8712L84.9611 25.629H86.3243L87.8787 30.1873L89.4096 25.629H90.6391L88.4376 31.8952Z" fill="#1E1E1E"/>
<g id="Clip path group">
<mask id="mask0_17837_2153" style="mask-type:luminance" maskUnits="userSpaceOnUse" x="9" y="10" width="25" height="24">
<g id="clip0_225_7196">
<path id="Vector_3" d="M21.9991 10H21.999C15.3716 10 9.99902 15.3726 9.99902 22V22C9.99902 28.6274 15.3716 34 21.999 34H21.9991C28.6265 34 33.999 28.6274 33.999 22V22C33.999 15.3726 28.6265 10 21.9991 10Z" fill="white"/>
</g>
</mask>
<g mask="url(#mask0_17837_2153)">
<g id="Group_2">
<path id="Vector_4" d="M21.9991 10H21.999C15.3716 10 9.99902 15.3726 9.99902 22V22C9.99902 28.6274 15.3716 34 21.999 34H21.9991C28.6265 34 33.999 28.6274 33.999 22V22C33.999 15.3726 28.6265 10 21.9991 10Z" fill="#FFC806"/>
<path id="Vector_5" fillRule="evenodd" clipRule="evenodd" d="M21.999 33.9999C28.6264 33.9999 33.999 28.6274 33.999 22C33.999 15.3726 28.6264 10 21.999 10C15.3716 10 9.99902 15.3726 9.99902 22C9.99902 28.6274 15.3716 33.9999 21.999 33.9999ZM29.9992 15.9622C29.9992 15.9622 27.3901 18.3773 27.3901 22C27.3901 25.6226 29.9992 28.0377 29.9992 28.0377L28.037 30C28.037 30 25.5787 27.3908 21.9992 27.3908C18.4197 27.3908 15.9615 30 15.9615 30L13.9992 28.0377C13.9992 28.0377 16.6084 25.6226 16.6084 22C16.6084 18.3773 13.9992 15.9622 13.9992 15.9622L15.9615 14C15.9615 14 18.4413 16.6092 21.9992 16.6092C25.5572 16.6092 28.037 14 28.037 14L29.9992 15.9622Z" fill="#1E1E1E"/>
</g>
</g>
</g>
</g>
</svg>
